<svg width="200" height="200" viewBox="0 0 200 200" fill="none" xmlns="http://www.w3.org/2000/svg">
<rect width="200" height="200" fill="#374151"/>
<path d="M100 60C105.523 60 110 64.477 110 70V90C110 95.523 105.523 100 100 100C94.477 100 90 95.523 90 90V70C90 64.477 94.477 60 100 60Z" fill="#9CA3AF"/>
<path d="M100 120C105.523 120 110 124.477 110 130C110 135.523 105.523 140 100 140C94.477 140 90 135.523 90 130C90 124.477 94.477 120 100 120Z" fill="#9CA3AF"/>
<circle cx="100" cy="100" r="80" stroke="#9CA3AF" stroke-width="2" fill="none"/>
</svg>